<svg width="309" height="101" viewBox="0 0 309 101" fill="none" xmlns="http://www.w3.org/2000/svg">
<path d="M9.14439 10.9149L0 62.3711L44 100.5L274 94L309 63.6588L291.298 26.4176L231.063 0L9.14439 10.9149Z" fill="#EFECEA"/>
<path d="M41.4748 75V69.672H50.2588C51.8268 69.672 53.0428 69.192 53.9068 68.232C54.8028 67.272 55.2508 66.136 55.2508 64.824C55.2508 63.928 55.0588 63.112 54.6748 62.376C54.2908 61.64 53.7148 61.064 52.9468 60.648C52.2108 60.2 51.3148 59.976 50.2588 59.976H41.4748V54.696H49.5388C50.8828 54.696 51.9548 54.36 52.7548 53.688C53.5868 53.016 54.0028 52.008 54.0028 50.664C54.0028 49.288 53.5868 48.264 52.7548 47.592C51.9548 46.92 50.8828 46.584 49.5388 46.584H41.4748V41.256H50.3068C52.5468 41.256 54.4188 41.672 55.9228 42.504C57.4588 43.304 58.6108 44.376 59.3788 45.72C60.1468 47.032 60.5308 48.472 60.5308 50.04C60.5308 51.96 59.9388 53.624 58.7548 55.032C57.6028 56.408 55.9068 57.432 53.6668 58.104L53.9548 55.992C56.4508 56.696 58.3708 57.864 59.7148 59.496C61.0908 61.096 61.7788 63.032 61.7788 65.304C61.7788 67.096 61.3308 68.728 60.4348 70.2C59.5708 71.64 58.2908 72.808 56.5948 73.704C54.9308 74.568 52.8988 75 50.4988 75H41.4748ZM36.6748 75V41.256H43.1548V75H36.6748ZM75.98 75.48C73.868 75.48 71.964 74.952 70.268 73.896C68.572 72.84 67.244 71.4 66.284 69.576C65.324 67.752 64.844 65.704 64.844 63.432C64.844 61.128 65.324 59.064 66.284 57.24C67.244 55.416 68.572 53.976 70.268 52.92C71.964 51.864 73.868 51.336 75.98 51.336C77.644 51.336 79.132 51.672 80.444 52.344C81.756 53.016 82.796 53.96 83.564 55.176C84.364 56.36 84.796 57.704 84.86 59.208V67.56C84.796 69.096 84.364 70.456 83.564 71.64C82.796 72.824 81.756 73.768 80.444 74.472C79.132 75.144 77.644 75.48 75.98 75.48ZM77.132 69.672C78.892 69.672 80.316 69.096 81.404 67.944C82.492 66.76 83.036 65.24 83.036 63.384C83.036 62.168 82.78 61.096 82.268 60.168C81.788 59.208 81.1 58.472 80.204 57.96C79.34 57.416 78.316 57.144 77.132 57.144C75.98 57.144 74.956 57.416 74.06 57.96C73.196 58.472 72.508 59.208 71.996 60.168C71.516 61.096 71.276 62.168 71.276 63.384C71.276 64.632 71.516 65.736 71.996 66.696C72.508 67.624 73.196 68.36 74.06 68.904C74.956 69.416 75.98 69.672 77.132 69.672ZM82.7 75V68.76L83.708 63.096L82.7 57.528V51.816H88.94V75H82.7ZM104.391 75.48C102.343 75.48 100.519 75.048 98.9188 74.184C97.3508 73.32 96.1188 72.12 95.2228 70.584C94.3268 69.048 93.8788 67.272 93.8788 65.256V51.816H100.215V65.112C100.215 66.072 100.375 66.904 100.695 67.608C101.015 68.28 101.495 68.792 102.135 69.144C102.775 69.496 103.527 69.672 104.391 69.672C105.703 69.672 106.727 69.272 107.463 68.472C108.199 67.672 108.567 66.552 108.567 65.112V51.816H114.855V65.256C114.855 67.304 114.407 69.096 113.511 70.632C112.647 72.168 111.415 73.368 109.815 74.232C108.247 75.064 106.439 75.48 104.391 75.48ZM119.862 75V51.816H126.15V75H119.862ZM134.982 75V61.32C134.982 59.976 134.55 58.936 133.686 58.2C132.854 57.432 131.814 57.048 130.566 57.048C129.734 57.048 128.982 57.224 128.31 57.576C127.638 57.896 127.11 58.376 126.726 59.016C126.342 59.656 126.15 60.424 126.15 61.32L123.702 60.12C123.702 58.328 124.086 56.776 124.854 55.464C125.654 54.152 126.726 53.144 128.07 52.44C129.414 51.704 130.934 51.336 132.63 51.336C134.23 51.336 135.686 51.704 136.998 52.44C138.31 53.144 139.35 54.152 140.118 55.464C140.886 56.744 141.27 58.296 141.27 60.12V75H134.982ZM150.102 75V61.32C150.102 59.976 149.67 58.936 148.806 58.2C147.974 57.432 146.934 57.048 145.686 57.048C144.886 57.048 144.134 57.224 143.43 57.576C142.758 57.896 142.23 58.376 141.846 59.016C141.462 59.656 141.27 60.424 141.27 61.32L137.67 60.456C137.798 58.6 138.294 57 139.158 55.656C140.022 54.28 141.158 53.224 142.566 52.488C143.974 51.72 145.542 51.336 147.27 51.336C148.998 51.336 150.55 51.704 151.926 52.44C153.302 53.144 154.39 54.168 155.19 55.512C155.99 56.856 156.39 58.456 156.39 60.312V75H150.102ZM172.575 75.48C170.143 75.48 167.983 74.968 166.095 73.944C164.207 72.888 162.703 71.448 161.583 69.624C160.495 67.8 159.951 65.72 159.951 63.384C159.951 61.08 160.479 59.032 161.535 57.24C162.623 55.416 164.095 53.976 165.951 52.92C167.807 51.832 169.871 51.288 172.143 51.288C174.383 51.288 176.351 51.8 178.047 52.824C179.775 53.816 181.119 55.192 182.079 56.952C183.071 58.68 183.567 60.648 183.567 62.856C183.567 63.272 183.535 63.704 183.471 64.152C183.439 64.568 183.359 65.048 183.231 65.592L163.743 65.64V60.936L180.303 60.888L177.759 62.856C177.695 61.48 177.439 60.328 176.991 59.4C176.575 58.472 175.951 57.768 175.119 57.288C174.319 56.776 173.327 56.52 172.143 56.52C170.895 56.52 169.807 56.808 168.879 57.384C167.951 57.928 167.231 58.712 166.719 59.736C166.239 60.728 165.999 61.912 165.999 63.288C165.999 64.696 166.255 65.928 166.767 66.984C167.311 68.008 168.079 68.808 169.071 69.384C170.063 69.928 171.215 70.2 172.527 70.2C173.711 70.2 174.783 70.008 175.743 69.624C176.703 69.208 177.535 68.6 178.239 67.8L181.935 71.496C180.815 72.808 179.439 73.8 177.807 74.472C176.207 75.144 174.463 75.48 172.575 75.48ZM187.456 75V51.816H193.792V75H187.456ZM190.624 48.072C189.6 48.072 188.752 47.736 188.08 47.064C187.408 46.36 187.072 45.496 187.072 44.472C187.072 43.48 187.408 42.632 188.08 41.928C188.752 41.224 189.6 40.872 190.624 40.872C191.68 40.872 192.528 41.224 193.168 41.928C193.84 42.632 194.176 43.48 194.176 44.472C194.176 45.496 193.84 46.36 193.168 47.064C192.528 47.736 191.68 48.072 190.624 48.072ZM207.33 75.528C206.018 75.528 204.722 75.352 203.442 75C202.194 74.648 201.042 74.168 199.986 73.56C198.93 72.92 198.018 72.152 197.25 71.256L200.994 67.464C201.794 68.36 202.722 69.032 203.778 69.48C204.834 69.928 206.002 70.152 207.282 70.152C208.306 70.152 209.074 70.008 209.586 69.72C210.13 69.432 210.402 69 210.402 68.424C210.402 67.784 210.114 67.288 209.538 66.936C208.994 66.584 208.274 66.296 207.378 66.072C206.482 65.816 205.538 65.544 204.546 65.256C203.586 64.936 202.658 64.536 201.762 64.056C200.866 63.544 200.13 62.856 199.554 61.992C199.01 61.096 198.738 59.944 198.738 58.536C198.738 57.064 199.09 55.784 199.794 54.696C200.53 53.608 201.57 52.76 202.914 52.152C204.258 51.544 205.842 51.24 207.666 51.24C209.586 51.24 211.314 51.576 212.85 52.248C214.418 52.92 215.714 53.928 216.738 55.272L212.946 59.064C212.242 58.2 211.442 57.576 210.546 57.192C209.682 56.808 208.738 56.616 207.714 56.616C206.786 56.616 206.066 56.76 205.554 57.048C205.074 57.336 204.834 57.736 204.834 58.248C204.834 58.824 205.106 59.272 205.65 59.592C206.226 59.912 206.962 60.2 207.858 60.456C208.754 60.68 209.682 60.952 210.642 61.272C211.634 61.56 212.562 61.976 213.426 62.52C214.322 63.064 215.042 63.784 215.586 64.68C216.162 65.576 216.45 66.728 216.45 68.136C216.45 70.408 215.634 72.216 214.002 73.56C212.37 74.872 210.146 75.528 207.33 75.528ZM224.098 75V42.168H230.386V75H224.098ZM218.674 57.336V51.816H235.81V57.336H218.674ZM249.872 75.48C247.44 75.48 245.28 74.968 243.392 73.944C241.504 72.888 240 71.448 238.88 69.624C237.792 67.8 237.248 65.72 237.248 63.384C237.248 61.08 237.776 59.032 238.832 57.24C239.92 55.416 241.392 53.976 243.248 52.92C245.104 51.832 247.168 51.288 249.44 51.288C251.68 51.288 253.648 51.8 255.344 52.824C257.072 53.816 258.416 55.192 259.376 56.952C260.368 58.68 260.864 60.648 260.864 62.856C260.864 63.272 260.832 63.704 260.768 64.152C260.736 64.568 260.656 65.048 260.528 65.592L241.04 65.64V60.936L257.6 60.888L255.056 62.856C254.992 61.48 254.736 60.328 254.288 59.4C253.872 58.472 253.248 57.768 252.416 57.288C251.616 56.776 250.624 56.52 249.44 56.52C248.192 56.52 247.104 56.808 246.176 57.384C245.248 57.928 244.528 58.712 244.016 59.736C243.536 60.728 243.296 61.912 243.296 63.288C243.296 64.696 243.552 65.928 244.064 66.984C244.608 68.008 245.376 68.808 246.368 69.384C247.36 69.928 248.512 70.2 249.824 70.2C251.008 70.2 252.08 70.008 253.04 69.624C254 69.208 254.832 68.6 255.536 67.8L259.232 71.496C258.112 72.808 256.736 73.8 255.104 74.472C253.504 75.144 251.76 75.48 249.872 75.48ZM264.753 75V51.816H271.041V75H264.753ZM271.041 62.184L268.593 60.552C268.881 57.704 269.713 55.464 271.089 53.832C272.465 52.168 274.449 51.336 277.041 51.336C278.161 51.336 279.169 51.528 280.065 51.912C280.961 52.264 281.777 52.856 282.513 53.688L278.577 58.2C278.225 57.816 277.793 57.528 277.281 57.336C276.801 57.144 276.241 57.048 275.601 57.048C274.257 57.048 273.153 57.48 272.289 58.344C271.457 59.176 271.041 60.456 271.041 62.184Z" fill="#00672E"/>
</svg>
